{"title":"Victor Frankenstein {2015} CAM XVID MP3-MURD3R","uid":12870915,"size":1482182653,"categoryP":"video","categoryS":"movies","magnet":"?xt=urn:btih:1c0212dabf757544f6be339c9048f734b00bf1a8&amp;dn=Victor+Frankenstein+%7B2015%7D+CAM+XVID+MP3-MURD3R&amp;tr=udp%3A%2F%2Ftracker.leechers-paradise.org%3A6969&amp;tr=udp%3A%2F%2Fzer0day.ch%3A1337&amp;tr=udp%3A%2F%2Fopen.demonii.com%3A1337&amp;tr=udp%3A%2F%2Ftracker.coppersurfer.tk%3A6969&amp;tr=udp%3A%2F%2Fexodus.desync.com%3A6969","seeders":0,"leechers":3,"uploader":"SaM","files":4,"time":1448881580,"description":"http://www.imdb.com/title/tt1976009/\r\n\r\nVictor Frankenstein {2015} CAM XVID MP3-MURD3R\r\n\r\nFormat : AVI\r\nFormat/Info : Audio Video Interleave\r\nFile size : 1.38 GiB\r\nDuration : 1h 43mn\r\nOverall bit rate : 1 913 Kbps\r\nWriting library : VirtualDub build 35491/release\r\n\r\nVideo\r\nID : 0\r\nFormat : MPEG-4 Visual\r\nFormat profile : Advanced   \r\nFormat settings, BVOP : 2\r\nFormat settings, QPel : No\r\nFormat settings, GMC : No warppoints\r\nFormat settings, Matrix : Default (H.263)\r\nMuxing mode : Packed bitstream\r\nCodec ID : XVID\r\nCodec ID/Hint : XviD\r\nDuration : 1h 43mn\r\nBit rate : 1 775 Kbps\r\nWidth : 620 pixels\r\nHeight : 280 pixels\r\nDisplay aspect ratio : 2.2:1\r\nFrame rate : 25.000 fps\r\nColor space : YUV\r\nChroma subsampling : 4:2:0\r\nBit depth : 8 bits\r\nScan type : Progressive\r\nCompression mode : Lossy\r\nBits/(Pixel*Frame) : 0.409\r\nStream size : 1.28 GiB (93%)\r\nWriting library : XviD 67\r\n\r\nAudio : UnKnOwN...TY\r\nID : 1\r\nFormat : MPEG Audio\r\nFormat version : Version 1\r\nFormat profile : Layer 3\r\nCodec ID : 55\r\nCodec ID/Hint : MP3\r\nDuration : 1h 43mn\r\nBit rate mode : Constant\r\nBit rate : 128 Kbps\r\nChannel(s) : 2 channels\r\nSampling rate : 48.0 KHz\r\nCompression mode : Lossy\r\nStream size : 94.6 MiB (7%)\r\nAlignment : Split accross interleaves\r\nInterleave, duration : 40 ms (1.00 video frame)\r\nInterleave, preload duratio : 500 ms\r\n \nhttp://extraimago.com/image/pZq","torrent":{"xt":"urn:btih:1c0212dabf757544f6be339c9048f734b00bf1a8","amp;dn":"Victor+Frankenstein+%7B2015%7D+CAM+XVID+MP3-MURD3R","amp;tr":["udp%3A%2F%2Ftracker.leechers-paradise.org%3A6969","udp%3A%2F%2Fzer0day.ch%3A1337","udp%3A%2F%2Fopen.demonii.com%3A1337","udp%3A%2F%2Ftracker.coppersurfer.tk%3A6969","udp%3A%2F%2Fexodus.desync.com%3A6969"],"infoHash":"1c0212dabf757544f6be339c9048f734b00bf1a8","infoHashBuffer":{"type":"Buffer","data":[28,2,18,218,191,117,117,68,246,190,51,156,144,72,247,52,176,11,241,168]},"announce":[],"urlList":[]}}